<svg xmlns="http://www.w3.org/2000/svg" xmlns:xlink="http://www.w3.org/1999/xlink" version="1.1" x="0px" y="0px" viewBox="0 0 100 125" enable-background="new 0 0 100 100" xml:space="preserve"><path fill="#000000" d="M42.195,27.979c-0.354,0-0.688-0.139-0.932-0.379c-0.536-0.485-0.885-1.144-0.986-1.861  c-0.242-1.699,0.939-3.278,2.639-3.521c0.66-0.094,1.324,0.025,1.903,0.333c0.614-0.421,1.265-0.812,1.937-1.175  c-0.094-0.015-0.185-0.033-0.276-0.045c-0.851-0.123-1.709-0.197-2.552-0.225c-0.735-0.024-1.311-0.639-1.287-1.374  c0.023-0.734,0.633-1.312,1.372-1.287c0.94,0.03,1.897,0.114,2.842,0.25c1.403,0.201,2.771,0.512,4.08,0.924  c1.311-0.412,2.676-0.724,4.076-0.924c0.945-0.136,1.9-0.219,2.842-0.25c0.736-0.021,1.35,0.552,1.373,1.287  c0.021,0.735-0.553,1.35-1.287,1.374c-0.844,0.027-1.703,0.102-2.553,0.225c-0.094,0.012-0.184,0.031-0.277,0.045  c0.676,0.363,1.322,0.754,1.939,1.175c0.576-0.307,1.244-0.426,1.9-0.333c1.697,0.244,2.881,1.823,2.641,3.521  c-0.102,0.701-0.436,1.344-0.947,1.827c-0.248,0.26-0.596,0.414-0.967,0.414c-0.418,0-0.807-0.197-1.057-0.517  c-1.893-2.194-4.578-3.936-7.686-5.041c-3.092,1.099-5.766,2.831-7.662,5.011C43.026,27.771,42.626,27.979,42.195,27.979z   M87.006,42.391c-0.863,4.147-2.854,8.232-5.76,11.852c2.186,4.629,3.273,9.914,3.061,15.27c-0.311,7.875-2.09,13.844-5.441,18.252  c-0.303,0.416-0.826,0.637-1.348,0.527c-0.645-0.131-1.1-0.709-1.062-1.365c0.143-2.773-0.117-5.66-0.764-8.545  c-0.025,0.139-0.053,0.277-0.082,0.418c-1.402,6.838-4.393,12.926-8.646,17.604c-0.26,0.287-0.621,0.438-0.986,0.438  c-0.266,0-0.533-0.08-0.768-0.246c-0.541-0.383-0.717-1.105-0.414-1.693c2.457-5.203,3.482-11.574,2.887-17.945  c-0.129-1.363-0.33-2.707-0.598-4.027l-4.271,5.439c-0.299,0.395-0.803,0.598-1.303,0.506c-0.59-0.111-1.033-0.598-1.084-1.195  c-0.012-0.16-0.027-0.322-0.043-0.482c-0.047-0.494-0.105-0.986-0.166-1.477c-1.541,1.402-2.816,1.607-5.871,1.607  c-1.43,0-5.268,0-6.697,0c-3.058,0-4.334-0.205-5.872-1.607c-0.064,0.49-0.121,0.984-0.168,1.477  c-0.018,0.16-0.029,0.322-0.044,0.482c-0.05,0.598-0.491,1.088-1.082,1.197c-0.08,0.016-0.163,0.023-0.245,0.023  c-0.43,0-0.834-0.209-1.082-0.562l-4.223-5.383c-0.266,1.312-0.469,2.648-0.592,4c-0.6,6.379,0.43,12.762,2.894,17.965  c0.282,0.584,0.104,1.293-0.428,1.668c-0.231,0.166-0.505,0.248-0.772,0.248c-0.361,0-0.719-0.145-0.976-0.432  c-4.255-4.678-7.246-10.766-8.647-17.604c-0.029-0.141-0.056-0.279-0.084-0.418c-0.645,2.885-0.906,5.771-0.761,8.545  c0.034,0.656-0.417,1.24-1.062,1.373c-0.551,0.111-1.096-0.131-1.387-0.586c-3.328-4.402-5.097-10.357-5.408-18.201  c-0.211-5.381,0.887-10.689,3.095-15.334c-2.882-3.604-4.851-7.666-5.708-11.787c-1.387-6.668-0.598-13.072,2.285-18.517  c2.773-5.243,7.418-9.504,13.428-12.327c0.375-0.178,0.814-0.167,1.182,0.025s0.627,0.545,0.697,0.954  c0.016,0.101,0.771,4.316,2.635,9.218c1.256-3.45,3.354-9.162,4.678-12.415c2.322-5.705,8.502-6.162,10.39-6.162  c0.008,0,0.019,0,0.026,0.001h1.024c0.012-0.001,0.02-0.001,0.029-0.001c1.883,0,8.062,0.456,10.383,6.162  c1.369,3.362,3.564,9.349,4.803,12.753c1.955-5.045,2.738-9.452,2.76-9.556c0.068-0.409,0.328-0.762,0.693-0.954  c0.369-0.192,0.807-0.203,1.184-0.025c6.012,2.823,10.654,7.084,13.428,12.327C87.604,29.319,88.393,35.723,87.006,42.391z   M36.856,25.332c2.838,5.915,7.325,11.649,14.07,11.649c0.043,0,0.209,0,0.252,0c6.643,0,11.092-5.548,13.934-11.358  c-0.012-0.031-0.025-0.061-0.037-0.09c-0.037-0.104-3.729-10.395-5.684-15.201c-1.697-4.17-6.463-4.503-7.924-4.503  c-0.006,0-0.012,0-0.021,0h-1.03c-0.01,0-0.018,0-0.022,0c-1.464,0-6.228,0.333-7.927,4.503  C40.664,14.767,37.38,23.874,36.856,25.332z M36.181,39.357c0-0.734,0.598-1.331,1.33-1.331h6.876  c-1.115-0.582-2.187-1.32-3.214-2.209c-2.694-2.156-5.752-2.772-8.312-3.177c-0.021,7.41,0.125,10.909,0.127,11.06  c0.176,5.965,2.309,11.664,5.381,14.57c0.771-1.053,1.598-2.049,2.484-2.977c0.178-0.186,0.402-0.312,0.65-0.373l8.67-2.08  c-1.354,0.004-4.055,0.004-4.055,0.004c-0.398,0-0.777-0.178-1.031-0.484c-0.252-0.311-0.354-0.717-0.273-1.107l2.122-10.563h-3.571  c-0.283,1.113-1.227,1.934-2.346,1.934c-1.121,0-2.062-0.821-2.35-1.934H37.51C36.779,40.687,36.181,40.092,36.181,39.357z   M54.115,50.183l-1.908-9.497h-2.555l-1.908,9.497H54.115z M22.184,51.602c0.767-1.277,1.621-2.489,2.565-3.619  c-0.41-1.205-0.756-2.512-1.112-3.859l-0.153-0.575c-1.16-4.363-1.707-8.722,2.131-11.056c1.146-0.698,2.633-0.898,3.973-0.538  c0.214,0.058,0.416,0.133,0.615,0.216c-0.004-0.678-0.002-1.072,0-1.099c0.014-0.725,0.604-1.305,1.33-1.305  c0.062,0,0.129,0.004,0.191,0.013l0.297,0.043c1.42,0.205,3.087,0.445,4.844,0.965c-0.927-1.404-1.795-2.968-2.604-4.694  c-2.12-4.525-3.303-9-3.838-11.377C20.041,20.275,15.302,30.3,17.703,41.848C18.393,45.167,19.966,48.576,22.184,51.602z   M30.216,35.506c-0.334-0.503-0.777-0.833-1.324-0.981c-0.766-0.207-1.5,0.001-1.895,0.242c-1.688,1.028-2.385,2.681-0.94,8.098  l0.151,0.578c1.199,4.535,2.137,7.452,4.342,7.938C30.33,46.165,30.248,39.72,30.216,35.506z M31.691,76.707  c0.344-3.67,1.152-7.182,2.375-10.418c-1.51-2.242-2.221-4.1-2.875-7.221c-0.208-1-0.372-2.781-0.504-4.979  c-1.977-0.178-3.568-1.297-4.734-3.34c-3.828,5.117-5.851,11.812-5.578,18.656c0.205,5.191,1.072,9.463,2.641,12.918  c0.334-3.586,1.242-7.244,2.686-10.781c0.252-0.611,0.914-0.945,1.557-0.785c0.574,0.145,0.986,0.648,1.008,1.242  c0.076,2.076,0.331,4.186,0.757,6.264c0.646,3.148,1.683,6.182,3.045,8.957C31.484,83.852,31.352,80.314,31.691,76.707z   M35.361,63.287c0.467-0.959,0.973-1.887,1.516-2.781c-1.285-1.129-2.424-2.617-3.377-4.363c0.086,1.025,0.188,1.848,0.299,2.383  C34.216,60.531,34.64,61.914,35.361,63.287z M59.664,72.434c-0.85-4.084-2.256-7.947-4.025-10.945h-9.284  c-1.768,2.996-3.173,6.861-4.023,10.945c0.846,1,1.42,1.578,1.998,1.859c0.735,0.359,1.803,0.385,3.791,0.367  c-0.011-0.104-0.009-0.209,0.006-0.314c0.105-0.729,0.781-1.23,1.51-1.127l1.176,0.172l1.459-0.617  c0.674-0.287,1.457,0.029,1.742,0.707c0.168,0.396,0.125,0.834-0.074,1.182c1.949,0.014,3.002-0.012,3.73-0.367  C58.246,74.012,58.82,73.434,59.664,72.434z M66.262,69.66c-1.422-4.74-3.746-8.998-6.752-12.244l-8.498-2.037l-8.502,2.037  c-3.01,3.254-5.338,7.52-6.758,12.268l3.549,4.525c0.861-5.518,2.732-10.889,5.185-14.762c0.242-0.389,0.668-0.621,1.125-0.621  h10.775c0.457,0,0.881,0.232,1.123,0.621c2.453,3.873,4.322,9.244,5.184,14.762L66.262,69.66z M68.07,59.938  c-0.264-0.646-0.953-1.025-1.688-0.926c-0.727,0.1-1.398-0.41-1.498-1.141c-0.068-0.508,0.158-0.988,0.551-1.268  c0.58-0.439,0.803-1.191,0.541-1.832c-0.266-0.645-0.959-1.027-1.688-0.928c-0.727,0.102-1.4-0.408-1.5-1.137  c-0.1-0.727,0.41-1.398,1.139-1.498c1.932-0.266,3.785,0.785,4.51,2.555c0.082,0.195,0.143,0.393,0.189,0.594  c0.398-6.467,0.496-17.555,0.508-21.719c-2.627,0.416-5.691,1.094-8.436,3.388c-0.043,0.035-0.088,0.067-0.135,0.097  c-0.916,0.753-1.863,1.389-2.85,1.902h6.631c0.734,0,1.33,0.596,1.33,1.331c0,0.735-0.596,1.33-1.33,1.33h-1.162  c-0.283,1.113-1.227,1.934-2.344,1.934c-1.121,0-2.064-0.821-2.348-1.934H54.92l2.123,10.563c0.076,0.393-0.023,0.799-0.275,1.107  c-0.252,0.307-0.633,0.484-1.031,0.484c0,0-2.494,0-3.889-0.004l8.668,2.08c0.248,0.061,0.477,0.188,0.652,0.373  c2.182,2.285,4.021,4.977,5.479,7.967c0.146-0.277,0.277-0.557,0.4-0.842c0.086-0.244,0.24-0.467,0.465-0.633  C68.107,61.346,68.336,60.586,68.07,59.938z M76.002,50.662c-0.002,0.004-0.004,0.008-0.006,0.014  c-1.154,2.059-2.729,3.199-4.688,3.404c-0.133,2.201-0.299,3.988-0.508,4.988c-0.029,0.145-0.059,0.281-0.09,0.418  c0.381,1.508-0.115,3.125-1.307,4.184c-0.393,0.875-0.863,1.705-1.461,2.596c1.23,3.242,2.041,6.76,2.387,10.441  c0.338,3.607,0.207,7.145-0.375,10.514c1.361-2.775,2.4-5.807,3.047-8.957c0.424-2.078,0.68-4.186,0.754-6.262  c0.021-0.594,0.434-1.1,1.008-1.244c0.639-0.16,1.307,0.174,1.555,0.787c1.445,3.537,2.355,7.195,2.689,10.781  c1.564-3.455,2.436-7.727,2.641-12.918C81.92,62.525,79.875,55.791,76.002,50.662z M75.693,43.444l0.152-0.578  c1.441-5.417,0.746-7.07-0.941-8.098c-0.395-0.241-1.129-0.449-1.896-0.242c-0.496,0.134-0.906,0.421-1.229,0.85  c-0.031,4.203-0.111,10.716-0.334,15.982C73.584,50.807,74.51,47.914,75.693,43.444z M71.682,14.718  c-0.537,2.378-1.721,6.853-3.84,11.377c-0.799,1.709-1.66,3.261-2.576,4.656c1.707-0.493,3.324-0.728,4.709-0.928l0.297-0.043  c0.062-0.009,0.129-0.013,0.193-0.013c0.725,0,1.314,0.58,1.33,1.305c0,0.027,0,0.406,0,1.06c0.17-0.066,0.342-0.126,0.52-0.176  c1.344-0.36,2.826-0.16,3.973,0.538c3.84,2.334,3.293,6.693,2.133,11.056l-0.154,0.575c-0.348,1.31-0.686,2.58-1.08,3.756  c0.992,1.178,1.893,2.446,2.689,3.783c2.242-3.042,3.832-6.47,4.525-9.814C86.803,30.302,82.062,20.276,71.682,14.718z   M52.252,62.977h-2.424c-0.732,0-1.332,0.596-1.332,1.33s0.6,1.33,1.332,1.33h2.424c0.734,0,1.332-0.596,1.332-1.33  S52.986,62.977,52.252,62.977z"/><text x="0" y="115" fill="#000000" font-size="5px" font-weight="bold" font-family="'Helvetica Neue', Helvetica, Arial-Unicode, Arial, Sans-serif">Created by Simon Child</text><text x="0" y="120" fill="#000000" font-size="5px" font-weight="bold" font-family="'Helvetica Neue', Helvetica, Arial-Unicode, Arial, Sans-serif">from the Noun Project</text></svg>