<svg xmlns="http://www.w3.org/2000/svg" xmlns:xlink="http://www.w3.org/1999/xlink" version="1.1" x="0px" y="0px" viewBox="0 0 100 125" style="enable-background:new 0 0 100 100;" xml:space="preserve"><path d="M43.67,66.78c3.47,3.65,6.85,7.37,10.09,11.2c8.04-3.03,13.76-10.77,13.76-19.87c0-11.74-9.51-21.25-21.25-21.25  c-8.66,0-16.09,5.19-19.41,12.62C32.88,54.82,38.14,60.97,43.67,66.78z"/><path d="M8.22,29.32l19.71,8.91l4.52,3.6c0,0-0.44,2.67-1.03,3.47c-0.7,0.95-3.52,1.92-3.52,1.92L8.22,29.32z"/><path d="M32.45,41.98l-4.61-3.62l-8.43-16.63l8.24,9.37l8.2,8.6c0,0-0.76,0.92-1.03,1.52C34.82,41.22,32.33,42.31,32.45,41.98z"/><path d="M35.63,39.6l-8.3-8.6l-1.15-17.72l14.88,17.27l0.73,6.89c0,0-1.54,2.13-2.56,2.43L35.63,39.6z"/><path d="M41.64,37.64l-0.56-7.26l1.97-15.03l3.59,15.61l0.32,5.82c0,0-1.76,1.12-2.44,1.18C43.76,38.02,41.64,37.64,41.64,37.64z"/><path d="M46.54,37.03l0.02-6l14.06-19.71l-4.08,22.06l-2.14,5.03c0,0-2.98,0.65-3.97,0.43c0,0-1.75-0.61-2.26-0.88L46.54,37.03z"/><polygon points="53.95,38.5 56.49,33.19 66.8,24.35 58.69,38.49 58.09,40.19 55.43,39.86 "/><path d="M57.47,40.09l1.29-1.26l24.57-8.41L65.71,47.25c0,0-2.12,1.58-1.82,1.3c0.15-0.14-2.2-1.75-3.85-3.83  C58.4,42.64,57.47,40.09,57.47,40.09z"/><path d="M27.82,47.28c0,0-6.96,7.33-6.48,7.51c0.48,0.18,1.82,1.65,1.82,1.65l-6.14,7.85l3.87,3.13l-0.28,5.46l1.42-1.42l2.1,2.16  l1.48-2.27l6.48,4.44l0.28-1.99l2.5,2.1l9.33-3.7l-2.84,5.52l-4.26-0.51l-4.44,3.7l-4.32-4.04l-1.92,3.18l-2.74,0.06l-2.62,0.63  l-0.57-1.93l-1.19,1.65l1.25,2.39c0,0,1.36,0.57,1.73,0.84c0.34,0.25,1.12,1.26,1.12,1.26l0.05,2.79l-0.84,2.1l11.03-2.73  l13.65,0.57l8.19-8.64l2.45-2.9L27.82,47.28z M29.87,62.62c-0.35,0.38-0.46,0.86-0.78,0.82c-1.24-0.16-1.47-3.53-1.47-4.77  c0,0,0.54-4.41,1.74-4.49c0.18-0.01,0.43,0.25,0.54,0.44c0.91,1.53,2.29,4.71,2.29,4.71S30.92,61.49,29.87,62.62z"/><path d="M63.03,47.7l18.17-3.03l-15.05,7.6C66.16,52.28,62.41,49.91,63.03,47.7z"/><path d="M65.42,51.06l26.93,3.53L65.77,66.56c0,0-2.81-7.5-2.81-9.28c0,0,0.48-5.95,2.46-6.23"/><path d="M65.07,64.22l15.5,5.59l-19.06,3.18c0,0,0.66-4.47,1.13-5.63L65.07,64.22z"/><path d="M61.72,72.22l10.64,17.15L55.27,79.11c0,0,1.35-3.53,2.2-4.44L61.72,72.22z"/><text x="0" y="115" fill="#000000" font-size="5px" font-weight="bold" font-family="'Helvetica Neue', Helvetica, Arial-Unicode, Arial, Sans-serif">Created by CJ Jacobs</text><text x="0" y="120" fill="#000000" font-size="5px" font-weight="bold" font-family="'Helvetica Neue', Helvetica, Arial-Unicode, Arial, Sans-serif">from the Noun Project</text></svg>